{
    "asset" : {
        "generator" : "Khronos glTF Blender I/O v1.5.17",
        "version" : "2.0"
    },
    "scene" : 0,
    "scenes" : [
        {
            "name" : "Scene",
            "nodes" : [
                0
            ]
        }
    ],
    "nodes" : [
        {
            "mesh" : 0,
            "name" : "tree-lime"
        }
    ],
    "materials" : [
        {
            "name" : "color_main",
            "pbrMetallicRoughness" : {
                "baseColorTexture" : {
                    "index" : 0
                },
                "metallicFactor" : 0.10000000149011612,
                "roughnessFactor" : 0.5681818127632141
            }
        }
    ],
    "meshes" : [
        {
            "name" : "tree-lime.001",
            "primitives" : [
                {
                    "attributes" : {
                        "POSITION" : 0,
                        "NORMAL" : 1,
                        "TEXCOORD_0" : 2
                    },
                    "indices" : 3,
                    "material" : 0
                }
            ]
        }
    ],
    "textures" : [
        {
            "sampler" : 0,
            "source" : 0
        }
    ],
    "images" : [
        {
            "bufferView" : 4,
            "mimeType" : "image/png",
            "name" : "color-atlas-gradient"
        }
    ],
    "accessors" : [
        {
            "bufferView" : 0,
            "componentType" : 5126,
            "count" : 2647,
            "max" : [
                5.0895795822143555,
                15.154541015625,
                4.236194133758545
            ],
            "min" : [
                -5.83873176574707,
                -0.5557394027709961,
                -6.555246353149414
            ],
            "type" : "VEC3"
        },
        {
            "bufferView" : 1,
            "componentType" : 5126,
            "count" : 2647,
            "type" : "VEC3"
        },
        {
            "bufferView" : 2,
            "componentType" : 5126,
            "count" : 2647,
            "type" : "VEC2"
        },
        {
            "bufferView" : 3,
            "componentType" : 5123,
            "count" : 2757,
            "type" : "SCALAR"
        }
    ],
    "bufferViews" : [
        {
            "buffer" : 0,
            "byteLength" : 31764,
            "byteOffset" : 0
        },
        {
            "buffer" : 0,
            "byteLength" : 31764,
            "byteOffset" : 31764
        },
        {
            "buffer" : 0,
            "byteLength" : 21176,
            "byteOffset" : 63528
        },
        {
            "buffer" : 0,
            "byteLength" : 5514,
            "byteOffset" : 84704
        },
        {
            "buffer" : 0,
            "byteLength" : 133375,
            "byteOffset" : 90220
        }
    ],
    "samplers" : [
        {
            "magFilter" : 9729,
            "minFilter" : 9987
        }
    ],
    "buffers" : [
        {
            "byteLength" : 223596,
            "uri" : "data:application/octet-stream;base64,"
        }
    ]
}
